Coordinates
version=1
nRows=21
nColumns=19
inDegrees=yes

Units are S.I. units (second, meters, Newtons, ...)
If the header above contains a line with 'inDegrees', this indicates whether rotational values are in degrees (yes) or radians (no).

endheader
time	pelvis_tilt	pelvis_list	pelvis_rotation	pelvis_tx	pelvis_ty	pelvis_tz	hip_flexion_r	hip_adduction_r	hip_rotation_r	knee_angle_r	knee_angle_r_beta	ankle_angle_r	hip_flexion_l	hip_adduction_l	hip_rotation_l	knee_angle_l	knee_angle_l_beta	ankle_angle_l
     13.37333333	     -3.97534483	      6.84117168	      0.13662501	      2.10820968	      0.95854600	      0.96982100	     -3.37889318	    -10.92912576	     -7.89588700	     57.34076503	      1.00078515	     -9.80224122	     23.12648957	      7.04839014	     -5.14445558	     19.77471360	      0.34513386	      2.85541751
     13.38000000	     -3.64196052	      7.35035743	      0.11293848	      2.10752586	      0.95427701	      0.96922157	     -2.46017396	    -11.76020755	     -7.35703757	     60.28133303	      1.05210774	     -9.07995138	     23.19793939	      7.56105595	     -5.72770212	     22.34808350	      0.39004764	      3.80035073
     13.38666667	     -2.83899636	      7.91446031	      0.20434894	      2.10679710	      0.95050363	      0.96854397	     -2.09934219	    -12.68936160	     -7.10915656	     63.05616758	      1.10053774	     -8.43902554	     22.66312866	      8.22540169	     -5.96897367	     24.83487408	      0.43345032	      5.07421793
     13.39333333	     -3.00831956	      8.29917642	      0.11304123	      2.10557637	      0.94565127	      0.96801130	     -0.33733634	    -13.33864463	     -6.24249725	     66.06704045	      1.15308738	     -7.79487488	     23.32040576	      8.55273462	     -6.46977675	     27.63380429	      0.48230087	      6.44711883
     13.40000000	     -2.29276942	      8.79283988	      0.22066804	      2.10445980	      0.94201501	      0.96731540	      0.28372475	    -14.15195650	     -5.87430426	     68.72969732	      1.19955951	     -7.17710451	     22.78848365	      9.17398037	     -6.45142620	     30.04338049	      0.52435591	      8.07853506
     13.40666667	     -1.93316199	      9.20844848	      0.26229517	      2.10306453	      0.93817071	      0.96667300	      1.45857232	    -14.82425724	     -5.25160186	     71.39757863	      1.24612283	     -6.51073501	     22.60203220	      9.68192722	     -6.42769027	     32.38581317	      0.56523907	      9.79593813
     13.41333333	     -2.20568658	      9.47087754	      0.25877165	      2.10145118	      0.93400355	      0.96601113	      3.51868073	    -15.25318126	     -4.33230363	     74.06846112	      1.29273852	     -5.87363017	     23.00869009	     10.00505544	     -6.36813164	     34.55891963	      0.60316693	     11.59520083
     13.42000000	     -1.81544301	      9.75115267	      0.34849437	      2.09995083	      0.93105594	      0.96527323	      4.72115133	    -15.71967128	     -3.72269871	     76.38179747	      1.33311385	     -5.17988842	     22.46086697	     10.45108574	     -6.02596369	     36.30897493	      0.63371116	     13.36317974
     13.42666667	     -1.66078263	      9.96047700	      0.37651398	      2.09838370	      0.92831383	      0.96451702	      6.28741399	    -16.03277918	     -2.91909992	     78.56935716	      1.37129397	     -4.47453409	     22.01914937	     10.80535733	     -5.68828567	     37.77502363	      0.65929854	     15.02428660
     13.43333333	     -1.26280165	     10.05695189	      0.45387213	      2.09693007	      0.92643191	      0.96372942	      7.51650267	    -16.24228516	     -2.33172337	     80.44438065	      1.40401931	     -3.77493130	     21.08974762	     11.09375174	     -5.16726813	     38.86712451	      0.67835929	     16.70712712
     13.44000000	     -1.50372687	     10.11139451	      0.28189711	      2.09538944	      0.92428365	      0.96313694	      9.68508083	    -16.24496182	     -1.22364009	     82.28422661	      1.43613068	     -3.08785879	     20.74539481	     11.20489879	     -4.99948727	     39.69641976	      0.69283323	     18.08923269
     13.44666667	     -1.13115859	     10.01444807	      0.39368641	      2.09404007	      0.92348850	      0.96221643	     10.90785970	    -16.15094127	     -0.69896114	     83.66314176	      1.46019729	     -2.48326633	     19.49045642	     11.34148474	     -4.27758028	     40.16376749	      0.70098998	     19.26846335
     13.45333333	     -0.98650132	      9.85703264	      0.33595884	      2.09293328	      0.92293817	      0.96147225	     12.42822352	    -15.96542146	     -0.06273729	     84.83210039	      1.48059946	     -1.71298583	     18.29349022	     11.32066869	     -3.82523308	     40.28497216	      0.70310540	     20.50498374
     13.46000000	     -1.32527441	      9.71419254	     -0.14537731	      2.09178116	      0.92229572	      0.96122456	     14.72831485	    -15.52287358	      1.22695108	     85.90884008	      1.49939212	     -1.15104105	     17.53845097	     11.11973166	     -4.00269213	     40.16069695	      0.70093639	     21.31534300
     13.46666667	     -1.45182879	      9.42099036	     -0.30712435	      2.09083570	      0.92248514	      0.96063297	     16.52254169	    -15.03488326	      1.91982434	     86.59415832	      1.51135318	     -0.63360503	     16.37076918	     10.92083177	     -3.68682504	     39.78991246	      0.69446498	     21.98963313
     13.47333333	     -1.52521812	      9.02723748	     -0.25150974	      2.09005751	      0.92328690	      0.95984665	     18.05766275	    -14.52919997	      2.20709453	     86.93619026	      1.51732276	     -0.15909753	     15.00222118	     10.70630021	     -3.04670655	     39.20960730	      0.68433675	     22.47141441
     13.48000000	     -1.72792113	      8.56831181	     -0.27774804	      2.08953887	      0.92448784	      0.95921530	     19.68121705	    -13.90654291	      2.48880799	     87.01851206	      1.51875955	      0.23936164	     13.62447376	     10.36930140	     -2.58442711	     38.34196565	      0.66919354	     22.78937502
     13.48666667	     -1.86824104	      8.10478329	     -0.76221700	      2.08897190	      0.92608082	      0.95918105	     21.35257955	    -13.06877482	      3.17738394	     86.90546290	      1.51678647	      0.42159927	     12.15106295	      9.89059789	     -2.66817318	     37.32660704	      0.65147219	     22.83725124
     13.49333333	     -2.22541027	      7.55542454	     -0.72573666	      2.08863860	      0.92798184	      0.95867518	     22.94663413	    -12.36442998	      3.17826464	     86.47009221	      1.50918781	      0.66719758	     10.81949125	      9.45652711	     -2.15964203	     36.22248614	      0.63220165	     22.67014962
     13.50000000	     -2.26346605	      6.90497983	     -0.88579595	      2.08849354	      0.93068458	      0.95846655	     24.09690110	    -11.49475855	      3.18635072	     85.71270326	      1.49596888	      0.77524331	      9.07036618	      8.84683333	     -1.92339423	     34.94407933	      0.60988924	     22.27912207
     13.50666667	     -2.31907577	      6.20933769	     -0.80827541	      2.08857950	      0.93381895	      0.95808971	     25.05565311	    -10.72903300	      2.80514219	     84.66668825	      1.47771248	      0.90036280	      7.27782528	      8.22510777	     -1.42163549	     33.56027867	      0.58573736	     21.61630029
